<?xml version="1.0" standalone="no"?>
<!DOCTYPE svg PUBLIC "-//W3C//DTD SVG 20010904//EN"
 "http://www.w3.org/TR/2001/REC-SVG-20010904/DTD/svg10.dtd">
<svg version="1.0" xmlns="http://www.w3.org/2000/svg"
 width="260.000000pt" height="260.000000pt" viewBox="0 0 260.000000 260.000000"
 preserveAspectRatio="xMidYMid meet">
<metadata>
Created by potrace 1.11, written by Peter Selinger 2001-2013
</metadata>
<g transform="translate(0.000000,260.000000) scale(0.100000,-0.100000)"
fill="#000000" stroke="none">
<path d="M2095 2539 c-99 -27 -155 -37 -165 -31 -9 6 -35 4 -70 -6 -30 -8 -62
-15 -71 -17 -8 -2 -38 -10 -66 -18 -27 -8 -56 -11 -63 -7 -20 12 -96 3 -143
-18 -23 -10 -57 -36 -76 -57 -18 -21 -43 -39 -55 -40 -11 -1 -34 -4 -51 -8
-26 -5 -63 -12 -130 -21 -30 -5 -97 -17 -122 -22 -21 -4 -22 -1 -16 42 4 33 2
45 -6 40 -6 -4 -19 -9 -28 -11 -10 -2 -70 -17 -133 -34 -63 -17 -119 -31 -124
-31 -4 0 -6 9 -3 21 5 18 2 20 -16 14 -117 -35 -157 -44 -230 -50 -98 -8 -196
-66 -234 -139 -25 -48 -28 -134 -6 -177 14 -26 17 -44 11 -65 -4 -16 -10 -45
-13 -65 -3 -20 -10 -51 -15 -70 -6 -19 -10 -37 -10 -41 0 -8 51 -4 139 12 30
6 58 10 63 10 4 0 8 -94 8 -208 l0 -209 -26 -13 c-14 -8 -29 -21 -34 -30 -6
-10 48 4 179 47 115 38 212 63 252 67 103 9 288 19 363 20 l69 1 4 -30 c5 -48
25 -115 34 -115 4 0 11 15 15 33 4 17 9 35 10 40 1 4 2 23 3 43 l1 36 98 -6
c53 -3 135 -9 182 -11 204 -13 227 -16 248 -28 6 -5 12 -6 12 -4 0 3 77 -21
170 -52 94 -31 170 -55 170 -53 0 6 -24 26 -50 43 l-25 16 0 350 0 350 37 31
c34 30 65 81 73 120 2 9 8 29 14 45 6 15 9 27 6 27 -2 0 2 17 9 38 7 20 16 50
20 66 7 28 7 28 -29 22 -32 -6 -36 -5 -31 11 3 10 8 34 11 53 3 19 10 51 15
70 14 49 12 60 -7 59 -10 0 -85 -18 -168 -40z m95 -81 c-9 -33 -15 -63 -27
-127 -6 -34 -6 -34 26 -28 28 6 32 4 27 -9 -3 -9 -9 -28 -12 -42 -24 -102 -78
-161 -151 -167 -21 -2 -67 -9 -103 -16 -36 -6 -74 -13 -85 -14 -11 -1 -31 -5
-45 -8 -14 -3 -59 -11 -100 -17 -41 -6 -88 -15 -105 -20 -59 -17 -99 -19 -133
-4 -41 17 -57 8 -78 -41 -31 -75 -106 -109 -170 -79 -18 9 -36 25 -39 35 -5
16 -13 19 -38 15 -18 -3 -88 -15 -157 -27 -69 -12 -143 -23 -165 -24 -22 -1
-52 -7 -67 -13 -14 -6 -41 -9 -59 -7 -18 3 -39 -1 -47 -7 -7 -7 -37 -12 -65
-13 -29 -1 -59 -5 -67 -9 -20 -8 -174 -35 -178 -31 -2 2 3 37 11 77 14 70 14
74 -6 108 -49 80 9 184 123 219 19 6 60 12 90 14 30 3 68 8 84 12 28 8 28 7
21 -26 -4 -19 -8 -38 -9 -43 -2 -18 31 -17 76 3 34 14 47 26 50 43 3 20 15 26
83 45 113 30 116 30 104 -9 -5 -17 -7 -33 -5 -35 4 -4 140 17 281 42 44 8 97
18 119 21 73 11 80 14 103 41 12 16 22 31 23 35 0 3 20 16 45 28 33 16 55 20
82 15 21 -3 43 -6 48 -7 6 0 41 7 78 17 37 9 74 15 81 12 8 -3 18 -1 24 5 5 5
39 12 74 14 34 2 101 14 148 28 118 33 120 33 110 -6z m-113 -765 c1 -178 -1
-323 -5 -323 -4 0 -60 17 -124 37 l-117 38 -20 48 c-14 33 -16 47 -7 47 6 0
17 -5 23 -11 7 -7 15 -5 27 6 20 20 20 29 0 46 -12 10 -20 10 -35 1 -30 -19
-36 -15 -55 38 -16 45 -22 51 -63 65 -73 23 -111 26 -366 30 -167 2 -266 -1
-325 -11 -120 -19 -135 -27 -156 -85 -19 -53 -24 -56 -54 -37 -16 10 -23 10
-35 -3 -19 -19 -10 -49 14 -49 9 0 22 5 29 12 16 16 15 1 -3 -53 l-16 -44
-124 -40 c-69 -22 -126 -38 -126 -35 -1 3 -2 92 -3 197 -1 148 2 194 11 198 8
2 35 7 61 11 26 3 51 8 55 11 4 2 28 6 54 8 25 3 55 8 67 11 11 4 32 8 46 9
14 1 44 5 67 9 23 4 55 9 70 11 15 2 39 6 53 10 14 3 45 8 70 11 25 3 48 8 51
10 4 2 13 -3 20 -12 41 -49 137 -61 208 -25 23 12 56 41 73 65 27 39 33 43 57
36 29 -8 28 -8 131 13 41 9 104 21 140 26 36 6 76 13 90 16 14 2 56 9 95 15
38 6 72 13 74 16 3 3 14 4 26 2 20 -3 20 -9 22 -325z m-559 -27 c107 -8 172
-18 177 -27 3 -4 10 -34 16 -66 5 -32 13 -66 15 -76 5 -17 3 -17 -35 2 -46 24
-69 29 -128 30 -38 1 -42 4 -48 31 -6 28 -77 100 -97 100 -5 0 -7 4 -3 10 3 5
11 7 18 5 7 -2 45 -6 85 -9z m-572 -8 c-3 -7 -13 -39 -23 -70 -10 -32 -21 -58
-25 -58 -8 0 1 85 13 117 4 12 16 23 25 23 9 0 13 -5 10 -12z m676 -196 c4 -4
-20 -7 -52 -8 -33 0 -60 1 -60 3 0 19 94 23 112 5z"/>
<path d="M2075 2385 c-16 -7 -27 -14 -24 -14 4 -1 3 -18 -2 -38 -6 -21 -11
-47 -13 -58 -9 -59 -20 -86 -37 -95 -14 -8 -19 -7 -19 2 0 14 28 153 36 181 3
11 0 17 -10 17 -25 0 -43 -27 -50 -75 -13 -81 -36 -145 -53 -145 -12 0 -14 7
-9 33 20 98 20 111 2 104 -10 -4 -21 -7 -26 -7 -4 0 -13 -27 -19 -61 -11 -63
-26 -93 -43 -83 -5 3 -6 19 -3 34 5 22 1 31 -15 43 l-21 15 27 21 c15 11 21
21 13 21 -7 0 -28 -15 -47 -32 -34 -32 -35 -32 -29 -8 14 62 19 100 12 100 -3
0 -15 -4 -25 -10 -17 -9 -24 -30 -44 -135 -5 -25 -17 -75 -22 -96 -4 -13 1
-15 21 -11 20 3 28 13 36 48 6 24 17 49 25 55 15 12 16 11 18 -40 1 -46 37
-60 68 -29 14 14 23 18 26 10 5 -17 33 -15 60 4 18 12 26 13 37 4 11 -9 22 -7
50 10 19 12 35 17 35 11 0 -6 9 -11 21 -11 25 0 82 57 72 73 -4 7 -10 2 -16
-11 -11 -24 -37 -30 -37 -9 0 6 9 52 20 101 11 49 19 91 17 92 -1 1 -15 -4
-32 -11z"/>
<path d="M1882 2358 c-17 -17 -15 -35 5 -42 21 -8 36 6 31 30 -4 22 -20 28
-36 12z"/>
<path d="M1563 2315 c-50 -35 -49 -76 2 -117 42 -33 32 -108 -14 -108 -30 0
-36 32 -10 53 19 15 20 20 9 27 -17 11 -46 -4 -60 -30 -38 -71 55 -111 119
-51 17 16 32 36 32 45 1 9 2 22 3 29 3 19 -14 49 -46 79 -32 30 -34 40 -12 62
21 21 37 10 31 -21 -3 -18 0 -23 12 -21 10 2 16 14 16 33 0 26 -4 30 -30 33
-16 1 -40 -4 -52 -13z"/>
<path d="M1345 2200 c-3 -5 -8 -20 -10 -32 -11 -62 -29 -108 -41 -108 -16 0
-18 16 -5 56 23 71 23 83 -1 79 -27 -6 -35 -19 -43 -70 -8 -45 -31 -88 -45
-80 -5 3 -7 15 -4 28 15 70 15 83 0 96 -13 11 -20 11 -41 -3 -18 -12 -30 -14
-43 -7 -11 6 -24 6 -35 0 -9 -6 -23 -9 -29 -8 -39 5 -50 -10 -61 -81 -3 -19
-9 -50 -12 -68 -6 -32 -5 -33 17 -27 29 9 26 6 31 35 10 52 28 109 37 115 17
11 19 -12 5 -71 -18 -76 -19 -72 10 -67 20 4 26 14 36 62 13 64 25 91 40 91
10 0 8 -34 -5 -97 -8 -37 29 -50 64 -24 20 14 30 17 33 8 3 -9 11 -9 37 0 l34
13 -33 -28 c-40 -33 -40 -65 0 -70 28 -3 69 36 69 65 0 8 14 28 30 43 17 15
30 36 30 47 0 13 -6 9 -21 -14 -12 -18 -23 -33 -26 -33 -3 0 -2 15 1 33 4 17
9 41 11 52 3 11 7 32 11 48 5 22 2 27 -15 27 -11 0 -23 -4 -26 -10z m-54 -223
c-16 -16 -26 0 -10 19 9 11 15 12 17 4 2 -6 -1 -17 -7 -23z"/>
<path d="M874 2190 c-17 -7 -25 -25 -39 -87 -9 -43 -18 -85 -21 -95 -6 -22
-52 -51 -70 -44 -23 9 -16 30 16 48 53 30 66 98 20 98 -46 0 -85 -44 -96 -109
-5 -26 -39 -60 -61 -61 -29 0 -22 25 16 60 59 54 54 99 -9 85 -34 -7 -68 -56
-77 -110 -11 -66 42 -87 103 -40 26 20 33 22 38 10 8 -22 49 -18 90 10 27 18
36 21 36 10 0 -18 38 -19 61 -2 20 16 43 57 30 57 -5 0 -11 -7 -15 -15 -3 -8
-13 -15 -22 -15 -12 0 -15 6 -10 26 15 60 38 176 34 179 -1 1 -13 -1 -24 -5z
m-89 -109 c3 -5 -6 -22 -20 -38 -26 -30 -32 -20 -13 22 12 26 23 32 33 16z
m-132 -28 c-6 -26 -32 -58 -39 -50 -10 10 17 67 31 67 8 0 11 -7 8 -17z"/>
<path d="M512 2149 c-39 -8 -91 -40 -97 -60 -13 -40 -13 -58 1 -70 8 -6 14
-10 15 -8 0 2 2 22 5 43 3 36 16 55 37 56 5 0 5 -9 2 -20 -10 -32 -44 -204
-41 -208 8 -7 53 18 53 30 2 71 26 118 60 118 7 0 13 7 13 15 0 11 -7 14 -24
9 -22 -5 -23 -4 -17 27 4 18 13 33 22 35 34 4 57 15 63 29 5 15 -32 16 -92 4z"/>
<path d="M1530 1389 c0 -5 10 -9 23 -9 32 0 128 -27 140 -39 7 -7 -4 -17 -34
-30 l-44 -21 85 -1 c47 0 115 -2 153 -3 37 -2 67 0 67 5 0 4 -21 26 -46 48
-38 33 -55 41 -88 42 -66 1 -188 8 -223 12 -18 3 -33 0 -33 -4z"/>
<path d="M1923 1320 c26 -23 47 -45 47 -49 0 -5 -42 -7 -92 -5 -51 1 -175 4
-276 6 l-182 3 4 26 c2 15 0 33 -5 40 -6 10 -9 7 -9 -12 0 -31 -31 -66 -66
-75 -63 -16 -141 24 -145 74 -1 9 -4 1 -8 -18 l-6 -34 -262 -2 c-145 -2 -263
-1 -263 1 0 2 12 16 27 30 15 14 23 25 16 25 -11 0 -72 -64 -74 -78 0 -4 -2
-19 -4 -34 -2 -17 1 -28 8 -29 7 0 347 -2 757 -3 712 -3 781 -5 820 -26 40
-21 43 -36 20 -104 -11 -35 -22 -82 -23 -105 -1 -35 -4 -41 -23 -41 -12 0 -41
-8 -64 -19 -30 -14 -68 -19 -140 -20 -55 -1 -107 -4 -117 -5 -10 -2 -76 -7
-148 -11 -71 -4 -166 -9 -210 -11 -44 -3 -160 -6 -257 -7 -135 -1 -178 -5
-178 -14 0 -15 4 -14 -105 -18 -107 -5 -117 -7 -70 -15 l40 -7 -46 -2 c-34 -1
-51 -7 -65 -23 -19 -23 -19 -23 2 -5 21 17 74 24 74 9 0 -4 -12 -9 -27 -10
-14 -1 -29 -4 -31 -7 -5 -5 154 -9 208 -6 17 1 21 -1 12 -7 -14 -9 -162 -14
-465 -16 -165 0 -178 1 -197 20 -12 11 -22 33 -23 50 -1 16 -8 34 -16 40 -12
9 -9 17 21 48 33 34 36 41 31 84 -3 25 -16 75 -31 111 -27 69 -27 70 -18 119
9 45 1 40 -16 -10 -14 -40 -13 -48 13 -128 35 -106 35 -121 4 -150 -38 -36
-43 -96 -12 -164 l25 -54 -49 -12 c-75 -18 -52 -41 56 -55 87 -12 80 -3 83
-96 l3 -84 417 -210 418 -210 419 211 420 211 0 82 c0 91 -5 86 85 96 30 4 68
13 85 20 l30 13 -34 15 c-19 8 -40 13 -47 10 -23 -9 -23 14 1 62 38 74 34 103
-27 187 -10 14 -9 29 6 80 39 139 40 143 23 185 -17 40 -24 22 -8 -20 15 -38
1 -41 -28 -6 -29 34 -70 46 -163 45 -56 -1 -57 -1 -63 30 -8 43 -34 74 -86
103 l-44 23 48 -42z m322 -446 c20 -15 20 -16 -4 -12 -14 2 -26 9 -29 16 -5
16 9 15 33 -4z m3 -37 c24 -16 12 -26 -20 -16 -18 5 -131 8 -250 6 -120 -1
-218 1 -218 5 0 14 465 19 488 5z m-735 -36 c4 -1 7 -27 7 -59 l0 -59 -210 1
-210 0 0 57 c0 55 1 58 28 61 22 2 361 2 385 -1z m245 -6 c3 -3 -21 -6 -54 -6
-50 -1 -54 -3 -24 -8 19 -4 47 -6 63 -5 15 1 27 -2 27 -7 0 -5 -11 -7 -25 -5
-14 3 -25 1 -25 -4 0 -5 12 -11 28 -13 15 -2 -19 -5 -75 -6 -57 0 -106 -2
-110 -3 -5 -2 -9 13 -11 33 l-3 36 102 -3 c56 -2 104 -6 107 -9z m382 -24 c0
-35 -3 -39 -27 -43 -16 -2 -41 -1 -58 2 -25 4 -30 10 -30 35 -1 44 1 45 61 45
l54 0 0 -39z m84 23 c13 -5 13 -10 4 -27 -11 -23 -27 -37 -41 -37 -4 0 -4 7 1
16 5 9 7 25 5 35 -5 20 4 23 31 13z m-1251 -11 c-7 -2 -19 -2 -25 0 -7 3 -2 5
12 5 14 0 19 -2 13 -5z m-43 -23 c0 -5 -4 -10 -10 -10 -5 0 -10 5 -10 10 0 6
5 10 10 10 6 0 10 -4 10 -10z m70 4 c0 -8 -19 -13 -24 -6 -3 5 1 9 9 9 8 0 15
-2 15 -3z m-70 -106 c0 -7 -23 -8 -67 -4 -38 3 -74 6 -80 6 -7 0 -13 3 -13 8
0 4 36 6 80 4 47 -2 80 -8 80 -14z m935 13 c-15 -15 -175 -26 -175 -13 0 7 34
13 88 15 48 1 89 4 92 5 2 1 0 -2 -5 -7z m-1040 -88 c326 -13 1002 -6 1212 12
l42 4 0 -60 -1 -60 -386 -193 -387 -194 -380 190 c-209 105 -382 192 -384 194
-3 3 -5 82 -2 111 1 8 18 11 54 8 28 -2 133 -8 232 -12z"/>
<path d="M1633 773 c18 -20 77 -30 77 -13 0 4 -12 6 -27 5 -16 -1 -37 5 -48
14 -20 16 -20 16 -2 -6z"/>
<path d="M2056 784 c-7 -19 10 -44 30 -44 15 0 28 35 19 51 -5 7 -14 4 -28 -8
-19 -16 -20 -16 -8 0 7 9 9 17 3 17 -5 0 -13 -7 -16 -16z"/>
<path d="M2043 1304 c0 -18 53 -58 61 -46 2 4 -10 14 -27 22 -17 7 -26 15 -20
17 6 2 26 -5 44 -16 19 -12 43 -21 54 -21 28 0 8 14 -56 37 -46 17 -56 18 -56
7z"/>
<path d="M2000 1304 c1 -17 37 -57 43 -47 4 6 -5 21 -18 33 -14 13 -25 19 -25
14z"/>
<path d="M2168 1232 c-14 -6 -11 -9 16 -18 30 -9 33 -8 28 8 -5 19 -15 21 -44
10z"/>
<path d="M526 1163 c-1 -1 -20 -3 -41 -4 -34 -2 -95 -23 -95 -32 0 -2 7 -23
15 -48 15 -47 23 -87 24 -132 1 -17 6 -27 14 -25 6 2 31 -4 55 -11 36 -12 52
-13 95 -2 77 19 1364 19 1425 0 34 -11 50 -11 85 0 23 7 50 12 59 12 23 0 25
5 32 64 5 47 15 88 31 128 6 13 -1 21 -31 34 -35 14 -122 16 -852 17 -448 1
-815 0 -816 -1z m254 -43 c0 -5 -22 -10 -49 -10 -28 0 -53 5 -56 10 -4 6 15
10 49 10 31 0 56 -4 56 -10z m165 0 c-3 -5 -33 -10 -66 -10 -33 0 -59 4 -59
10 0 6 29 10 66 10 41 0 63 -4 59 -10z m170 0 c-3 -5 -30 -10 -60 -10 -30 0
-57 5 -60 10 -4 6 18 10 60 10 42 0 64 -4 60 -10z m170 0 c-3 -5 -30 -10 -60
-10 -30 0 -57 5 -60 10 -4 6 18 10 60 10 42 0 64 -4 60 -10z m165 2 c0 -4 -27
-9 -60 -10 -34 -1 -60 3 -60 8 0 6 27 10 60 10 33 0 60 -4 60 -8z m175 -2 c-3
-5 -33 -10 -66 -10 -33 0 -59 4 -59 10 0 6 29 10 66 10 41 0 63 -4 59 -10z
m170 0 c-3 -5 -30 -10 -60 -10 -30 0 -57 5 -60 10 -4 6 18 10 60 10 42 0 64
-4 60 -10z m152 3 c-11 -11 -107 -13 -107 -3 0 6 26 10 57 10 31 0 53 -3 50
-7z m-1324 -44 c22 -28 22 -54 -3 -79 -42 -42 -115 -9 -105 48 10 57 71 75
108 31z m1476 -11 c10 -16 10 -26 0 -49 -21 -53 -101 -48 -115 7 -18 71 75
105 115 42z m-984 2 c-4 -6 -114 -7 -125 0 -3 2 15 6 40 9 50 7 92 3 85 -9z
m324 11 c13 -1 21 -4 18 -8 -10 -9 -127 -12 -127 -2 0 9 27 15 60 12 14 -1 36
-2 49 -2z m186 -9 c-8 -8 -108 -11 -120 -4 -5 4 3 9 20 12 35 6 109 0 100 -8z
m283 9 c7 -1 11 -5 8 -10 -3 -5 -20 -7 -38 -6 -41 3 -40 3 -34 13 3 5 15 8 28
6 13 -1 29 -3 36 -3z m-1133 -11 c-6 -10 -70 -8 -81 3 -4 4 14 7 40 7 27 0 45
-4 41 -10z m171 3 c-10 -11 -116 -11 -122 -1 -3 4 25 8 62 8 37 0 64 -3 60 -7z
m339 -2 c-6 -10 -111 -8 -122 2 -3 4 24 7 61 7 39 0 65 -4 61 -9z m510 -1 c-7
-11 -114 -10 -121 2 -3 4 25 8 61 8 40 0 64 -4 60 -10z m-1020 -48 c-9 -10
-48 -13 -65 -6 -11 5 -9 8 10 14 26 7 65 1 55 -8z m162 3 c-4 -11 -84 -17
-107 -8 -11 4 -9 7 8 12 36 9 102 7 99 -4z m180 -1 c2 -6 -23 -9 -59 -8 -75 2
-76 2 -61 12 16 10 116 7 120 -4z m162 7 c8 -1 11 -4 7 -8 -8 -8 -107 -12
-120 -5 -23 13 26 19 113 13z m169 0 c7 -1 11 -5 8 -10 -3 -4 -32 -7 -63 -6
-71 3 -71 3 -56 13 7 4 32 7 55 6 24 -2 49 -3 56 -3z m169 -6 c-4 -11 -84 -17
-107 -8 -11 4 -9 7 8 12 36 9 102 7 99 -4z m171 6 c7 -1 11 -5 8 -9 -3 -5 -29
-8 -58 -6 -69 2 -77 4 -55 12 15 7 44 7 105 3z m121 0 c8 -1 11 -4 7 -8 -9 -9
-76 -11 -76 -2 0 11 10 16 32 13 13 -1 29 -3 37 -3z m-1132 -56 c2 -6 -19 -11
-47 -11 -37 -1 -48 2 -41 10 12 14 83 15 88 1z m160 0 c2 -6 -18 -10 -45 -10
-51 -1 -72 3 -72 14 0 11 115 6 117 -4z m173 -1 c0 -5 -24 -9 -52 -10 -56 0
-71 3 -64 15 7 10 116 6 116 -5z m173 7 c5 -1 6 -5 3 -9 -2 -4 -28 -7 -58 -6
-69 2 -70 3 -64 12 4 7 77 9 119 3z m167 -6 c0 -7 -22 -10 -57 -9 -67 2 -66 2
-59 12 7 12 116 9 116 -3z m170 0 c0 -5 -24 -10 -52 -11 -57 -1 -77 4 -59 15
16 10 111 7 111 -4z m177 2 c7 -8 5 -8 -62 -11 -53 -3 -68 1 -61 13 6 9 113 7
123 -2z m137 4 c5 -1 6 -4 2 -8 -9 -9 -96 -11 -96 -3 0 14 13 18 48 15 20 -2
41 -4 46 -4z"/>
<path d="M549 1074 c-11 -13 -9 -14 12 -9 27 7 56 -16 44 -35 -3 -5 -2 -10 3
-10 20 0 20 28 1 49 -23 25 -42 27 -60 5z"/>
<path d="M2023 1080 c-16 -7 -23 -18 -23 -37 l0 -28 13 25 c8 16 21 25 35 24
13 0 21 4 19 10 -5 14 -19 16 -44 6z"/>
<path d="M925 890 c-82 -3 -145 -8 -140 -11 31 -18 1045 -15 1045 3 0 5 -57 9
-127 10 -314 3 -640 3 -778 -2z"/>
<path d="M479 795 c-1 -8 -1 -22 -1 -30 0 -34 3 -36 59 -33 l57 3 1 35 0 35
-57 3 c-47 2 -58 0 -59 -13z m71 -10 c11 -13 10 -14 -4 -9 -9 3 -16 10 -16 15
0 13 6 11 20 -6z m-40 -17 c0 -18 -2 -20 -9 -8 -6 8 -7 18 -5 22 9 14 14 9 14
-14z"/>
<path d="M828 793 c7 -3 16 -2 19 1 4 3 -2 6 -13 5 -11 0 -14 -3 -6 -6z"/>
</g>
</svg>
