<svg width="138" height="66" viewBox="0 0 138 66" fill="none" xmlns="http://www.w3.org/2000/svg">
<g clip-path="url(#clip0)">
<path fill-rule="evenodd" clip-rule="evenodd" d="M121.86 37.94H121.71C120.752 38.103 119.777 38.1367 118.81 38.04C116.906 38.8661 114.828 39.2096 112.76 39.04C110.919 39.8266 108.918 40.1691 106.92 40.04C105.445 40.6565 103.868 40.9955 102.27 41.04L92.07 42.74C88.5326 44.2881 84.5546 44.5048 80.87 43.35C80.0546 45.579 78.6655 47.5535 76.843 49.074C75.0205 50.5945 72.8291 51.6073 70.49 52.01C68.4984 52.4099 66.4357 52.262 64.5215 51.5823C62.6073 50.9025 60.9133 49.7163 59.62 48.15L42.79 50.95C41.0181 51.5319 39.1349 51.6928 37.29 51.42C34.6885 52.6669 31.7762 53.1158 28.92 52.71C26.8276 53.7484 24.5259 54.2957 22.19 54.31V54.38L18.47 55L0 58.12L3.06999 43.38C1.43855 41.3002 0.592316 38.7119 0.679993 36.07C0.679993 26.28 9.86999 20.32 18.82 20.07C24.1 19.94 29.59 17.91 34.71 16.34L33.9 19.34L54.57 14.12L53.41 19.75L77.41 15.75C80.65 9.91 88.67 6.41 95.06 8.75L111.54 4.54999L111.31 5.70999C111.68 5.75467 112.047 5.81808 112.41 5.89999L135.56 0L132.72 13.83L137.34 13.06L133.65 26.72C133.149 28.7491 132.239 30.6544 130.975 32.319C129.711 33.9836 128.12 35.3723 126.3 36.4" fill="#3B444E"/>
<path fill-rule="evenodd" clip-rule="evenodd" d="M36.68 46.72C35.454 47.5413 34.0615 48.0811 32.6023 48.3007C31.1431 48.5202 29.6534 48.4141 28.24 47.99C25.54 49.8 21.71 50.64 18.71 49.08L18.41 50.52L5.7 52.64L7.95 41.75C5.83 40.5 5.12999 38.38 5.12999 36.06C5.12999 28.8 12.42 24.71 18.93 24.54C22.1413 24.416 25.3192 23.8403 28.37 22.83L26.8 28.74C27.6136 28.7935 28.4135 28.9758 29.17 29.28C30.863 27.9967 32.9256 27.2951 35.05 27.28L35.83 23.52L48.76 20.23L47.76 25.23L58.68 23.41V23.52C60.0346 22.9761 61.518 22.8372 62.95 23.12L63.04 22.71L80.52 19.8C82.14 13.93 90.07 10.8 94.6 13.5L105.7 10.67L105.42 12.07C106.284 11.1781 107.392 10.561 108.605 10.296C109.818 10.0309 111.083 10.1297 112.24 10.58L129.76 6.12L127.04 19.34L131.22 18.64L129.35 25.57C128.24 29.69 125.35 32.87 120.96 33.57C120.018 33.7301 119.052 33.6823 118.13 33.43C116.313 34.5384 114.136 34.897 112.06 34.43C110.301 35.494 108.21 35.8714 106.19 35.49C104.456 36.4933 102.421 36.8477 100.45 36.49L100.37 36.89L90.75 38.49C87.33 40.11 82.5 40.37 79.64 37.56C78.9781 38.4752 78.1708 39.2758 77.25 39.93C77.25 39.93 76.12 46.6 69.74 47.66C66.31 48.23 63.03 46.78 62.08 43.35H61.45L41.7 46.64C40.0939 47.2529 38.3227 47.2777 36.7 46.71L36.68 46.72ZM121.86 37.94H121.71C120.752 38.103 119.777 38.1367 118.81 38.04C116.906 38.8661 114.828 39.2096 112.76 39.04C110.919 39.8266 108.918 40.1691 106.92 40.04C105.445 40.6565 103.868 40.9955 102.27 41.04L92.07 42.74C88.5326 44.2881 84.5546 44.5048 80.87 43.35C80.0546 45.579 78.6655 47.5535 76.843 49.074C75.0205 50.5945 72.8291 51.6073 70.49 52.01C68.4984 52.4099 66.4357 52.262 64.5215 51.5823C62.6073 50.9025 60.9133 49.7163 59.62 48.15L42.79 50.95C41.0181 51.5319 39.1349 51.6928 37.29 51.42C34.6885 52.6669 31.7762 53.1158 28.92 52.71C26.8276 53.7484 24.5259 54.2957 22.19 54.31V54.38L18.47 55L0 58.12L3.06999 43.38C1.43855 41.3002 0.592316 38.7119 0.679993 36.07C0.679993 26.28 9.86999 20.32 18.82 20.07C24.1 19.94 29.59 17.91 34.71 16.34L33.9 19.34L54.57 14.12L53.41 19.75L77.41 15.75C80.65 9.91 88.67 6.41 95.06 8.75L111.54 4.54999L111.31 5.70999C111.68 5.75467 112.047 5.81808 112.41 5.89999L135.56 0L132.72 13.83L137.34 13.06L133.65 26.72C133.149 28.7491 132.239 30.6544 130.975 32.319C129.711 33.9836 128.12 35.3723 126.3 36.4" fill="white"/>
<path d="M24.5345 39C25.4653 38.7476 26.2788 38.1782 26.8345 37.39C27.4741 36.5962 27.8265 35.6094 27.8345 34.59C27.8345 34.04 27.6445 33.8 27.2745 33.86C26.7145 33.97 26.1845 34.55 25.6645 35.6C25.1369 36.6766 24.76 37.8206 24.5445 39H24.5345ZM33.2645 37.54C34.1953 37.2992 35.0083 36.7312 35.5545 35.94C36.1976 35.1481 36.5505 34.1601 36.5545 33.14C36.5545 32.59 36.3645 32.35 35.9845 32.41C35.4345 32.52 34.8945 33.09 34.3845 34.14C33.8538 35.2267 33.4736 36.3806 33.2545 37.57L33.2645 37.54ZM38.4945 39.76V39.66C37.9101 40.6015 37.1409 41.4148 36.2334 42.0507C35.3259 42.6867 34.299 43.1321 33.2145 43.36C32.7771 43.4654 32.3231 43.4834 31.8787 43.4131C31.4342 43.3427 31.008 43.1854 30.6245 42.95C30.3587 42.7362 30.1404 42.4692 29.9837 42.1661C29.827 41.863 29.7353 41.5306 29.7145 41.19C29.1333 42.114 28.3712 42.911 27.4742 43.5331C26.5772 44.1552 25.5637 44.5895 24.4945 44.81C23.6154 45.0209 22.6885 44.8772 21.9145 44.41C21.5485 44.0888 21.2662 43.6833 21.092 43.2286C20.9178 42.7738 20.8569 42.2836 20.9145 41.8C20.9388 39.971 21.3909 38.173 22.2345 36.55C22.8391 35.2771 23.7928 34.2021 24.9845 33.45C25.5497 33.0852 26.1821 32.837 26.8445 32.72C27.1969 32.6107 27.5681 32.5756 27.9347 32.6169C28.3013 32.6582 28.6553 32.775 28.9745 32.96C29.1735 33.151 29.3279 33.3836 29.4264 33.6412C29.5249 33.8988 29.5653 34.175 29.5445 34.45C29.5353 35.1175 29.3925 35.7764 29.1246 36.3878C28.8567 36.9992 28.469 37.5508 27.9845 38.01C27.0024 39.0557 25.7322 39.7866 24.3345 40.11C24.3345 40.54 24.2745 40.85 24.2745 41.03C24.2745 41.8 24.4145 42.29 24.6845 42.5C24.8546 42.6051 25.0439 42.6752 25.2414 42.7061C25.4388 42.737 25.6405 42.7281 25.8345 42.68C26.6378 42.5592 27.3958 42.2318 28.0345 41.73C28.6214 41.2308 29.1573 40.6748 29.6345 40.07C29.6953 38.3269 30.1428 36.619 30.9445 35.07C31.5523 33.7992 32.5053 32.725 33.6945 31.97C34.2597 31.6052 34.8921 31.357 35.5545 31.24C35.9083 31.1286 36.2814 31.0924 36.6499 31.1338C37.0184 31.1751 37.3743 31.293 37.6945 31.48C37.8901 31.6731 38.0414 31.9063 38.1381 32.1635C38.2348 32.4208 38.2745 32.6959 38.2545 32.97C38.2453 33.6375 38.1025 34.2964 37.8346 34.9078C37.5667 35.5192 37.179 36.0708 36.6945 36.53C35.714 37.5776 34.4431 38.3088 33.0445 38.63C33.0445 39.06 33.0445 39.37 33.0445 39.55C33.0445 40.32 33.1745 40.81 33.4445 41.02C33.6161 41.1259 33.8075 41.1955 34.007 41.2248C34.2065 41.254 34.4098 41.2422 34.6045 41.19C35.4097 41.0761 36.1695 40.748 36.8045 40.24C37.5053 39.6471 38.136 38.9761 38.6845 38.24L41.1145 26.46L44.4745 25.46L41.8645 38.15C41.8057 38.4228 41.7755 38.701 41.7745 38.98C41.7745 39.49 42.0845 39.69 42.6945 39.59C43.1898 39.4916 43.6314 39.2138 43.9345 38.81C44.3182 38.3536 44.5949 37.8172 44.7445 37.24L45.7445 37.08C44.7645 40.0534 43.1345 41.72 40.8545 42.08C40.5746 42.1352 40.2861 42.1298 40.0084 42.0643C39.7307 41.9987 39.4703 41.8745 39.2445 41.7C38.9772 41.4568 38.7696 41.1553 38.6378 40.8188C38.506 40.4824 38.4535 40.12 38.4845 39.76H38.4945ZM68.9745 40.38C68.9663 40.5145 69.006 40.6475 69.0865 40.7556C69.1671 40.8636 69.2833 40.9395 69.4145 40.97C69.5535 40.9945 69.6956 40.9945 69.8345 40.97C70.0245 40.97 70.2445 40.75 70.4845 40.39C70.7827 39.9061 70.9864 39.3699 71.0845 38.81L71.2245 38.14C69.7179 38.9067 68.9645 39.6533 68.9645 40.38H68.9745ZM66.7045 33.72V33.57L68.2345 26.03L71.5045 25.49L69.8745 33.49C69.8273 33.6831 69.8037 33.8812 69.8045 34.08C69.8045 34.75 70.0245 35.08 70.4545 34.97C70.9066 34.8894 71.3088 34.6344 71.5745 34.26C71.8891 33.8138 72.1321 33.3212 72.2945 32.8L73.8645 25.12L77.1345 24.57L74.9045 35.48C75.5585 35.1612 76.1377 34.708 76.6045 34.15C77.1399 33.4294 77.5367 32.6156 77.7745 31.75L78.7745 31.59C78.386 33.3596 77.3384 34.9149 75.8445 35.94C75.4926 36.1572 75.1249 36.3477 74.7445 36.51L74.3945 38.21C74.2087 39.5169 73.5971 40.7259 72.6545 41.65C72.0443 42.2181 71.2782 42.5907 70.4545 42.72C69.7836 42.8822 69.0772 42.808 68.4545 42.51C68.1934 42.3348 67.9861 42.0907 67.8554 41.8047C67.7248 41.5187 67.676 41.2021 67.7145 40.89C67.7145 39.51 68.9612 38.2033 71.4545 36.97L71.6945 35.7C71.0342 36.5992 70.0596 37.2168 68.9645 37.43C68.6686 37.4932 68.3627 37.4939 68.0665 37.4319C67.7702 37.3699 67.4903 37.2466 67.2445 37.07C66.9041 36.7797 66.6832 36.3736 66.6245 35.93C66.3401 36.4391 65.9831 36.9039 65.5645 37.31C65.0525 37.8191 64.4023 38.1668 63.6945 38.31C61.7545 38.64 60.7845 37.94 60.7845 36.24C60.8489 35.2249 61.0199 34.2194 61.2945 33.24C61.558 32.3091 61.7288 31.3545 61.8045 30.39C61.8045 29.63 61.5345 29.29 60.9845 29.39C60.4345 29.49 59.9845 29.96 59.5245 30.84C59.399 31.0975 59.2953 31.3651 59.2145 31.64L57.6745 39.18L54.4045 39.73L56.0745 31.57C56.123 31.3976 56.1466 31.2191 56.1445 31.04C56.1445 30.43 55.9245 30.17 55.4745 30.24C55.2398 30.2846 55.0166 30.3768 54.8188 30.511C54.621 30.6451 54.4528 30.8184 54.3245 31.02C54.0089 31.4823 53.7692 31.992 53.6145 32.53L52.0645 40.08L48.7945 40.62L51.2045 28.86L54.4745 28.32L54.2345 29.54C54.8861 28.6138 55.8789 27.9843 56.9945 27.79C57.2614 27.7056 57.5444 27.6848 57.8207 27.7296C58.097 27.7743 58.359 27.8833 58.5856 28.0476C58.8122 28.212 58.9971 28.4272 59.1254 28.6759C59.2537 28.9247 59.3219 29.2001 59.3245 29.48C59.6155 28.8336 60.0522 28.2634 60.6005 27.814C61.1487 27.3647 61.7936 27.0484 62.4845 26.89C62.7846 26.8247 63.0949 26.8221 63.3961 26.8823C63.6972 26.9426 63.9827 27.0643 64.2345 27.24C64.479 27.4447 64.671 27.7049 64.7945 27.9989C64.9181 28.2929 64.9695 28.6121 64.9445 28.93C64.9271 29.844 64.8064 30.7531 64.5845 31.64L64.0845 33.9C63.9887 34.2864 63.9351 34.6821 63.9245 35.08C63.9245 35.72 64.1945 35.99 64.7545 35.89C64.9849 35.864 65.2076 35.7912 65.4088 35.676C65.61 35.5607 65.7855 35.4056 65.9245 35.22C66.2469 34.7566 66.5059 34.2521 66.6945 33.72H66.7045ZM83.3145 31.5C83.2694 30.4265 83.626 29.3748 84.3145 28.55C84.8942 27.8396 85.7045 27.3548 86.6045 27.18C86.9211 27.0841 87.2578 27.0762 87.5784 27.1573C87.8991 27.2383 88.1916 27.4052 88.4245 27.64C88.5758 27.838 88.6568 28.0808 88.6545 28.33C88.1545 28.378 87.6729 28.5434 87.2489 28.8128C86.8249 29.0821 86.4705 29.4478 86.2145 29.88C86.0114 30.2746 85.9341 30.722 85.9931 31.1618C86.0521 31.6017 86.2446 32.0129 86.5445 32.34C86.7766 32.5278 87.0496 32.6582 87.3415 32.7208C87.6334 32.7833 87.9359 32.7762 88.2245 32.7C88.9605 32.5671 89.6203 32.1641 90.0745 31.57C90.5528 30.9719 90.8074 30.2257 90.7945 29.46C90.8221 28.7997 90.7061 28.1412 90.4545 27.53C90.2282 27.0566 89.9389 26.6159 89.5945 26.22C89.2526 25.823 88.8815 25.452 88.4845 25.11C88.0845 24.77 87.7045 24.41 87.3545 24.05C86.9876 23.7103 86.6917 23.3011 86.484 22.8463C86.2763 22.3914 86.1609 21.8998 86.1445 21.4C86.1549 20.7982 86.2941 20.2057 86.5529 19.6623C86.8116 19.1189 87.1839 18.6373 87.6445 18.25C88.6656 17.2962 89.9525 16.6755 91.3345 16.47C93.0145 16.19 94.0745 16.57 94.5145 17.59C94.6632 17.9822 94.7279 18.4012 94.7045 18.82C94.7039 19.3701 94.5366 19.907 94.2245 20.36C94.1034 20.5756 93.937 20.7623 93.7367 20.9073C93.5365 21.0523 93.3071 21.1522 93.0645 21.2C92.8788 21.25 92.6829 21.2485 92.4979 21.1956C92.313 21.1428 92.1459 21.0406 92.0145 20.9C92.3005 20.6036 92.5198 20.2496 92.6578 19.8615C92.7958 19.4735 92.8492 19.0604 92.8145 18.65C92.8137 18.341 92.7234 18.0388 92.5545 17.78C92.3745 17.5 91.9945 17.41 91.4045 17.51C90.8527 17.5875 90.3443 17.8523 89.9645 18.26C89.6011 18.6544 89.4041 19.1739 89.4145 19.71C89.3954 20.1531 89.4668 20.5955 89.6245 21.01C89.9368 21.6436 90.4091 22.1848 90.9945 22.58L91.8345 23.28C92.4232 23.7282 92.9393 24.2645 93.3645 24.87C93.8835 25.7336 94.1566 26.7225 94.1545 27.73C94.1832 28.5943 94.0348 29.4554 93.7184 30.2602C93.4019 31.0651 92.9242 31.7967 92.3145 32.41C91.1797 33.542 89.7105 34.2783 88.1245 34.51C85.9145 34.88 84.4445 34.42 83.6945 33.13C83.4264 32.6293 83.2921 32.0678 83.3045 31.5H83.3145ZM109.375 16.17C109.377 15.6673 109.557 15.1818 109.885 14.8C110.197 14.3974 110.651 14.1291 111.155 14.05C111.362 13.9971 111.58 14.0007 111.786 14.0605C111.992 14.1203 112.178 14.2341 112.325 14.39C112.609 14.7313 112.755 15.1664 112.735 15.61C112.741 16.0901 112.594 16.5596 112.315 16.95C112.181 17.1427 112.009 17.3054 111.81 17.4276C111.61 17.5499 111.387 17.6291 111.155 17.66C110.933 17.7068 110.704 17.7032 110.484 17.6496C110.264 17.5959 110.059 17.4935 109.885 17.35C109.716 17.2048 109.582 17.0231 109.494 16.8187C109.405 16.6143 109.365 16.3925 109.375 16.17ZM119.505 24.78L121.925 13L125.285 12L122.675 24.7C122.624 24.9705 122.597 25.2449 122.595 25.52C122.595 26.04 122.895 26.24 123.515 26.14C124.007 26.0282 124.445 25.749 124.755 25.35C125.135 24.895 125.411 24.3627 125.565 23.79L126.565 23.63C125.591 26.5967 123.961 28.2633 121.675 28.63C121.396 28.6837 121.11 28.6776 120.834 28.6121C120.558 28.5465 120.299 28.4231 120.075 28.25C119.887 28.0926 119.732 27.8991 119.621 27.681C119.509 27.4628 119.442 27.2244 119.425 26.98C119.024 27.6759 118.475 28.275 117.816 28.7347C117.158 29.1944 116.406 29.5035 115.615 29.64C115.335 29.6952 115.046 29.6898 114.768 29.6243C114.491 29.5587 114.23 29.4345 114.005 29.26C113.629 28.9392 113.395 28.4826 113.355 27.99C112.957 28.6865 112.41 29.2863 111.753 29.7462C111.096 30.2061 110.345 30.5148 109.555 30.65C109.275 30.7066 108.987 30.7028 108.71 30.639C108.432 30.5752 108.171 30.4528 107.945 30.28C107.588 29.9788 107.359 29.5535 107.305 29.09C107.003 29.71 106.564 30.2535 106.022 30.6796C105.48 31.1057 104.848 31.4033 104.175 31.55C103.818 31.6449 103.446 31.6654 103.081 31.6104C102.717 31.5553 102.367 31.4258 102.055 31.23C101.801 31.0083 101.603 30.7296 101.478 30.4167C101.353 30.1037 101.304 29.7656 101.335 29.43C101.344 29.0237 101.387 28.619 101.465 28.22L101.655 27.3C101.71 27.0233 101.74 26.7421 101.745 26.46C101.745 25.73 101.475 25.4 100.925 25.46C100.277 25.6803 99.7 26.0706 99.2545 26.59L98.0645 32.4L94.7945 32.95L98.0945 16.95L101.445 15.95L99.7445 24.23L104.115 20.06L106.365 19.68L101.805 23.57C102.045 23.4674 102.297 23.3936 102.555 23.35C102.884 23.2608 103.23 23.2572 103.561 23.3394C103.891 23.4217 104.196 23.5871 104.445 23.82C104.876 24.302 105.102 24.9336 105.075 25.58C105.073 25.8761 105.04 26.1712 104.975 26.46L104.695 27.64C104.627 27.8847 104.586 28.1363 104.575 28.39C104.575 28.95 104.885 29.18 105.495 29.08C105.849 28.9861 106.173 28.8038 106.437 28.5502C106.701 28.2965 106.896 27.9799 107.005 27.63C107.125 27.37 107.245 27.08 107.365 26.76L108.895 19.22L112.165 18.67L110.535 26.67C110.476 26.9395 110.446 27.2143 110.445 27.49C110.445 28.01 110.745 28.21 111.365 28.11C111.857 27.9982 112.295 27.719 112.605 27.32C112.985 26.865 113.261 26.3327 113.415 25.76L115.845 13.98L119.205 12.98L116.595 25.68C116.536 25.9495 116.506 26.2243 116.505 26.5C116.505 27.02 116.815 27.22 117.425 27.12C117.918 27.0106 118.357 26.7309 118.665 26.33C119.049 25.8776 119.325 25.3444 119.475 24.77L119.505 24.78ZM11.1545 36.78C11.0345 36.3713 10.9838 35.9455 11.0045 35.52C11.0257 34.8338 11.1679 34.1568 11.4245 33.52C11.7223 32.7331 12.1823 32.0176 12.7745 31.42C14.4096 29.8469 16.5192 28.8589 18.7745 28.61C19.3408 28.5241 19.9119 28.474 20.4845 28.46C21.1915 28.4333 21.8962 28.3632 22.5945 28.25C23.2871 28.1441 23.9607 27.9387 24.5945 27.64L24.3845 28.44C24.2891 28.9566 24.0597 29.4392 23.7192 29.8393C23.3788 30.2394 22.9392 30.5431 22.4445 30.72C21.3912 30.8671 20.3251 30.9006 19.2645 30.82L18.3345 35.34L21.6445 34.79L21.2745 36.69L17.9345 37.24L16.1045 46.09L12.8345 46.63L16.1145 30.89C15.6669 30.9647 15.2399 31.1323 14.861 31.382C14.4821 31.6318 14.1597 31.9581 13.9145 32.34C13.3215 33.4893 13.0584 34.7803 13.1545 36.07C13.1222 36.5308 13.2192 36.9914 13.4345 37.4C13.4473 37.4526 13.4473 37.5074 13.4345 37.56C12.2345 37.7533 11.4812 37.49 11.1745 36.77L11.1545 36.78Z" fill="#ED6C00"/>
</g>
<defs>
<clipPath id="clip0">
<rect width="137.33" height="65.01" fill="white"/>
</clipPath>
</defs>
</svg>
