<svg width="138" height="66" viewBox="0 0 138 66" fill="none" xmlns="http://www.w3.org/2000/svg"><g clip-path="url(#a)"><path fill-rule="evenodd" clip-rule="evenodd" d="M121.86 37.94h-.15a10.85 10.85 0 0 1-2.9.1 12.61 12.61 0 0 1-6.05 1 12.77 12.77 0 0 1-5.84 1 12.998 12.998 0 0 1-4.65 1l-10.2 1.7a16 16 0 0 1-11.2.61 13.49 13.49 0 0 1-10.38 8.66 11.23 11.23 0 0 1-10.87-3.86l-16.83 2.8a12.001 12.001 0 0 1-5.5.47 14.61 14.61 0 0 1-8.37 1.29 15.35 15.35 0 0 1-6.73 1.6v.07l-3.72.62L0 58.12l3.07-14.74a11.24 11.24 0 0 1-2.39-7.31c0-9.79 9.19-15.75 18.14-16 5.28-.13 10.77-2.16 15.89-3.73l-.81 3 20.67-5.22-1.16 5.63 24-4c3.24-5.84 11.26-9.34 17.65-7l16.48-4.2-.23 1.16c.37.045.737.108 1.1.19L135.56 0l-2.84 13.83 4.62-.77-3.69 13.66a15.337 15.337 0 0 1-7.35 9.68" fill="#3B444E"/><path fill-rule="evenodd" clip-rule="evenodd" d="M36.68 46.72a10 10 0 0 1-8.44 1.27c-2.7 1.81-6.53 2.65-9.53 1.09l-.3 1.44L5.7 52.64l2.25-10.89c-2.12-1.25-2.82-3.37-2.82-5.69 0-7.26 7.29-11.35 13.8-11.52a34.23 34.23 0 0 0 9.44-1.71l-1.57 5.91a7.708 7.708 0 0 1 2.37.54 9.85 9.85 0 0 1 5.88-2l.78-3.76 12.93-3.29-1 5 10.92-1.82v.11a7.54 7.54 0 0 1 4.27-.4l.09-.41 17.48-2.91c1.62-5.87 9.55-9 14.08-6.3l11.1-2.83-.28 1.4a6.31 6.31 0 0 1 6.82-1.49l17.52-4.46-2.72 13.22 4.18-.7-1.87 6.93c-1.11 4.12-4 7.3-8.39 8a6.56 6.56 0 0 1-2.83-.14 8.2 8.2 0 0 1-6.07 1 8.35 8.35 0 0 1-5.87 1.06 8.45 8.45 0 0 1-5.74 1l-.08.4-9.62 1.6c-3.42 1.62-8.25 1.88-11.11-.93a10.341 10.341 0 0 1-2.39 2.37s-1.13 6.67-7.51 7.73c-3.43.57-6.71-.88-7.66-4.31h-.63L41.7 46.64a7.28 7.28 0 0 1-5 .07l-.02.01zm85.18-8.78h-.15a10.85 10.85 0 0 1-2.9.1 12.61 12.61 0 0 1-6.05 1 12.77 12.77 0 0 1-5.84 1 12.998 12.998 0 0 1-4.65 1l-10.2 1.7a16 16 0 0 1-11.2.61 13.49 13.49 0 0 1-10.38 8.66 11.23 11.23 0 0 1-10.87-3.86l-16.83 2.8a12.001 12.001 0 0 1-5.5.47 14.61 14.61 0 0 1-8.37 1.29 15.35 15.35 0 0 1-6.73 1.6v.07l-3.72.62L0 58.12l3.07-14.74a11.24 11.24 0 0 1-2.39-7.31c0-9.79 9.19-15.75 18.14-16 5.28-.13 10.77-2.16 15.89-3.73l-.81 3 20.67-5.22-1.16 5.63 24-4c3.24-5.84 11.26-9.34 17.65-7l16.48-4.2-.23 1.16c.37.045.737.108 1.1.19L135.56 0l-2.84 13.83 4.62-.77-3.69 13.66a15.337 15.337 0 0 1-7.35 9.68" fill="#fff"/><path d="M24.535 39a4.14 4.14 0 0 0 2.3-1.61 4.52 4.52 0 0 0 1-2.8c0-.55-.19-.79-.56-.73-.56.11-1.09.69-1.61 1.74a13.06 13.06 0 0 0-1.12 3.4h-.01zm8.73-1.46a4 4 0 0 0 2.29-1.6 4.47 4.47 0 0 0 1-2.8c0-.55-.19-.79-.57-.73-.55.11-1.09.68-1.6 1.73a13.293 13.293 0 0 0-1.13 3.43l.01-.03zm5.23 2.22v-.1a8.2 8.2 0 0 1-5.28 3.7 3.42 3.42 0 0 1-2.59-.41 2.45 2.45 0 0 1-.91-1.76 8.1 8.1 0 0 1-5.22 3.62 3.44 3.44 0 0 1-2.58-.4 3 3 0 0 1-1-2.61 11.721 11.721 0 0 1 1.32-5.25 7.44 7.44 0 0 1 2.75-3.1 5.05 5.05 0 0 1 1.86-.73 2.67 2.67 0 0 1 2.13.24 1.87 1.87 0 0 1 .57 1.49 5 5 0 0 1-1.56 3.56 7.25 7.25 0 0 1-3.65 2.1c0 .43-.06.74-.06.92 0 .77.14 1.26.41 1.47a1.5 1.5 0 0 0 1.15.18 4.69 4.69 0 0 0 2.2-.95c.586-.5 1.122-1.055 1.6-1.66a11.77 11.77 0 0 1 1.31-5 7.51 7.51 0 0 1 2.75-3.1 5.05 5.05 0 0 1 1.86-.73 2.659 2.659 0 0 1 2.14.24 1.9 1.9 0 0 1 .56 1.49 5 5 0 0 1-1.56 3.56 7.21 7.21 0 0 1-3.65 2.1v.92c0 .77.13 1.26.4 1.47a1.48 1.48 0 0 0 1.16.17 4.54 4.54 0 0 0 2.2-.95c.7-.593 1.331-1.264 1.88-2l2.43-11.78 3.36-1-2.61 12.69a4.008 4.008 0 0 0-.09.83c0 .51.31.71.92.61a2.05 2.05 0 0 0 1.24-.78c.383-.456.66-.993.81-1.57l1-.16c-.98 2.973-2.61 4.64-4.89 5a2 2 0 0 1-1.61-.38 2.35 2.35 0 0 1-.76-1.94h.01zm30.48.62a.57.57 0 0 0 .44.59c.138.025.28.025.42 0 .19 0 .41-.22.65-.58a4.51 4.51 0 0 0 .6-1.58l.14-.67c-1.507.767-2.26 1.513-2.26 2.24h.01zm-2.27-6.66v-.15l1.53-7.54 3.27-.54-1.63 8a2.393 2.393 0 0 0-.07.59c0 .67.22 1 .65.89a1.75 1.75 0 0 0 1.12-.71 5.27 5.27 0 0 0 .72-1.46l1.57-7.68 3.27-.55-2.23 10.91a5.17 5.17 0 0 0 1.7-1.33 7.24 7.24 0 0 0 1.17-2.4l1-.16a7.13 7.13 0 0 1-2.93 4.35c-.352.217-.72.408-1.1.57l-.35 1.7a6 6 0 0 1-1.74 3.44 4.18 4.18 0 0 1-2.2 1.07 3 3 0 0 1-2-.21 1.7 1.7 0 0 1-.74-1.62c0-1.38 1.246-2.687 3.74-3.92l.24-1.27a4.44 4.44 0 0 1-2.73 1.73 2.17 2.17 0 0 1-1.72-.36 1.81 1.81 0 0 1-.62-1.14 6.01 6.01 0 0 1-1.06 1.38 3.69 3.69 0 0 1-1.87 1c-1.94.33-2.91-.37-2.91-2.07.064-1.015.235-2.02.51-3 .263-.93.434-1.886.51-2.85 0-.76-.27-1.1-.82-1-.55.1-1 .57-1.46 1.45-.126.258-.23.525-.31.8l-1.54 7.54-3.27.55 1.67-8.16c.048-.172.072-.35.07-.53 0-.61-.22-.87-.67-.8a1.75 1.75 0 0 0-1.15.78 5.253 5.253 0 0 0-.71 1.51l-1.55 7.55-3.27.54 2.41-11.76 3.27-.54-.24 1.22a4.27 4.27 0 0 1 2.76-1.75 1.79 1.79 0 0 1 2.33 1.69 4.59 4.59 0 0 1 3.16-2.59 2.23 2.23 0 0 1 1.75.35 2 2 0 0 1 .71 1.69 12.115 12.115 0 0 1-.36 2.71l-.5 2.26a5.46 5.46 0 0 0-.16 1.18c0 .64.27.91.83.81a1.7 1.7 0 0 0 1.17-.67 6.39 6.39 0 0 0 .77-1.5h.01zm16.61-2.22a4.32 4.32 0 0 1 1-2.95 3.92 3.92 0 0 1 2.29-1.37 1.82 1.82 0 0 1 1.82.46c.15.198.232.44.23.69a3.19 3.19 0 0 0-2.44 1.55 2.17 2.17 0 0 0 .33 2.46 1.9 1.9 0 0 0 1.68.36 3 3 0 0 0 1.85-1.13 3.29 3.29 0 0 0 .72-2.11 4.569 4.569 0 0 0-.34-1.93 5.821 5.821 0 0 0-.86-1.31 10.565 10.565 0 0 0-1.11-1.11c-.4-.34-.78-.7-1.13-1.06a3.781 3.781 0 0 1-1.21-2.65 4.21 4.21 0 0 1 1.5-3.15 6.89 6.89 0 0 1 3.69-1.78c1.68-.28 2.74.1 3.18 1.12.148.392.213.811.19 1.23a2.72 2.72 0 0 1-.48 1.54 1.709 1.709 0 0 1-1.16.84 1.06 1.06 0 0 1-1.05-.3 2.89 2.89 0 0 0 .8-2.25 1.6 1.6 0 0 0-.26-.87c-.18-.28-.56-.37-1.15-.27a2.43 2.43 0 0 0-1.44.75 2.08 2.08 0 0 0-.55 1.45c-.02.443.052.886.21 1.3a4.06 4.06 0 0 0 1.37 1.57l.84.7a7.196 7.196 0 0 1 1.53 1.59 5.53 5.53 0 0 1 .79 2.86 6.34 6.34 0 0 1-1.84 4.68 7.46 7.46 0 0 1-4.19 2.1c-2.21.37-3.68-.09-4.43-1.38a3.3 3.3 0 0 1-.39-1.63h.01zm26.06-15.33c.002-.503.182-.988.51-1.37a2 2 0 0 1 1.27-.75 1.2 1.2 0 0 1 1.17.34c.284.341.43.776.41 1.22.006.48-.141.95-.42 1.34a1.68 1.68 0 0 1-1.16.71 1.514 1.514 0 0 1-1.27-.31 1.465 1.465 0 0 1-.51-1.18zm10.13 8.61l2.42-11.78 3.36-1-2.61 12.7c-.051.27-.078.545-.08.82 0 .52.3.72.92.62.492-.112.93-.391 1.24-.79a4.09 4.09 0 0 0 .81-1.56l1-.16c-.974 2.967-2.604 4.633-4.89 5a2 2 0 0 1-1.6-.38 1.82 1.82 0 0 1-.65-1.27 5.467 5.467 0 0 1-3.81 2.66 2.004 2.004 0 0 1-1.61-.38 1.869 1.869 0 0 1-.65-1.27 5.435 5.435 0 0 1-3.8 2.66 2 2 0 0 1-1.61-.37 1.835 1.835 0 0 1-.64-1.19 4.566 4.566 0 0 1-3.13 2.46 2.694 2.694 0 0 1-2.12-.32 2.128 2.128 0 0 1-.72-1.8c.009-.406.052-.811.13-1.21l.19-.92a4.74 4.74 0 0 0 .09-.84c0-.73-.27-1.06-.82-1a3.81 3.81 0 0 0-1.67 1.13l-1.19 5.81-3.27.55 3.3-16 3.35-1-1.7 8.28 4.37-4.17 2.25-.38-4.56 3.89c.24-.103.492-.176.75-.22a2 2 0 0 1 1.89.47c.431.482.657 1.114.63 1.76a4.135 4.135 0 0 1-.1.88l-.28 1.18a3.343 3.343 0 0 0-.12.75c0 .56.31.79.92.69a2.158 2.158 0 0 0 1.51-1.45c.12-.26.24-.55.36-.87l1.53-7.54 3.27-.55-1.63 8a3.9 3.9 0 0 0-.09.82c0 .52.3.72.92.62.492-.112.93-.391 1.24-.79a4.09 4.09 0 0 0 .81-1.56l2.43-11.78 3.36-1-2.61 12.7a3.9 3.9 0 0 0-.09.82c0 .52.31.72.92.62a2.16 2.16 0 0 0 1.24-.79c.384-.452.66-.986.81-1.56l.03.01zm-108.35 12a3.814 3.814 0 0 1-.15-1.26 5.833 5.833 0 0 1 .42-2 6.001 6.001 0 0 1 1.35-2.1 10.28 10.28 0 0 1 6-2.81 13.622 13.622 0 0 1 1.71-.15 17.256 17.256 0 0 0 2.11-.21 7.268 7.268 0 0 0 2-.61l-.21.8a3 3 0 0 1-1.94 2.28c-1.054.147-2.12.18-3.18.1l-.93 4.52 3.31-.55-.37 1.9-3.34.55-1.83 8.85-3.27.54 3.28-15.74a3.25 3.25 0 0 0-2.2 1.45 7 7 0 0 0-.76 3.73c-.033.46.064.921.28 1.33a.338.338 0 0 1 0 .16c-1.2.193-1.954-.07-2.26-.79l-.02.01z" fill="#ED6C00"/></g><defs><clipPath id="a"><path fill="#fff" d="M0 0h137.33v65.01H0z"/></clipPath></defs></svg>